<?xml version="1.0" encoding="UTF-8" standalone="no"?>
<!-- Created with Inkscape (http://www.inkscape.org/) -->

<svg
   width="135.46666mm"
   height="135.46666mm"
   viewBox="0 0 135.46665 135.46666"
   version="1.1"
   id="svg5"
   xml:space="preserve"
   xmlns:xlink="http://www.w3.org/1999/xlink"
   xmlns="http://www.w3.org/2000/svg"
   xmlns:svg="http://www.w3.org/2000/svg"><defs
     id="defs2"><linearGradient
       id="linearGradient4106"><stop
         style="stop-color:#00fff1;stop-opacity:1;"
         offset="0"
         id="stop4102" /><stop
         style="stop-color:#3e5a86;stop-opacity:1;"
         offset="1"
         id="stop4104" /></linearGradient><linearGradient
       id="linearGradient3884"><stop
         style="stop-color:#00fff1;stop-opacity:1;"
         offset="0"
         id="stop3880" /><stop
         style="stop-color:#3e5887;stop-opacity:0.52847838;"
         offset="0.5"
         id="stop3886" /><stop
         style="stop-color:#7dfefc;stop-opacity:1;"
         offset="1"
         id="stop3882" /></linearGradient><linearGradient
       xlink:href="#linearGradient3884"
       id="linearGradient3874"
       x1="337.29514"
       y1="97.427742"
       x2="390.427"
       y2="68.383614"
       gradientUnits="userSpaceOnUse"
       gradientTransform="matrix(0.70960699,0,0,0.70960699,-211.72222,-4.1498432)"
       spreadMethod="pad" /><linearGradient
       xlink:href="#linearGradient3884"
       id="linearGradient3928"
       gradientUnits="userSpaceOnUse"
       gradientTransform="matrix(0.70960699,0,0,0.70960699,-211.72226,-3.3679783)"
       x1="337.29514"
       y1="97.427742"
       x2="390.427"
       y2="68.383614"
       spreadMethod="pad" /><linearGradient
       xlink:href="#linearGradient3884"
       id="linearGradient3932"
       gradientUnits="userSpaceOnUse"
       gradientTransform="matrix(0.70960699,0,0,0.70960699,-211.72226,-2.3096449)"
       x1="337.29514"
       y1="97.427742"
       x2="390.427"
       y2="68.383614"
       spreadMethod="pad" /><linearGradient
       xlink:href="#linearGradient3884"
       id="linearGradient3938"
       gradientUnits="userSpaceOnUse"
       gradientTransform="matrix(0.70960699,0,0,0.70960699,-211.72226,-1.2513115)"
       x1="337.29514"
       y1="97.427742"
       x2="390.427"
       y2="68.383614"
       spreadMethod="pad" /><linearGradient
       xlink:href="#linearGradient4106"
       id="linearGradient4108"
       x1="74.418541"
       y1="62.500774"
       x2="111.17002"
       y2="62.500774"
       gradientUnits="userSpaceOnUse"
       gradientTransform="translate(2.6458334)" /><linearGradient
       xlink:href="#linearGradient4106"
       id="linearGradient6826"
       gradientUnits="userSpaceOnUse"
       x1="74.418541"
       y1="62.500774"
       x2="111.17002"
       y2="62.500774" /><linearGradient
       xlink:href="#linearGradient3884"
       id="linearGradient6828"
       gradientUnits="userSpaceOnUse"
       gradientTransform="matrix(0.70960699,0,0,0.70960699,-211.72222,-4.1498432)"
       x1="337.29514"
       y1="97.427742"
       x2="390.427"
       y2="68.383614"
       spreadMethod="pad" /><linearGradient
       xlink:href="#linearGradient3884"
       id="linearGradient6830"
       gradientUnits="userSpaceOnUse"
       gradientTransform="matrix(0.70960699,0,0,0.70960699,-211.72226,-3.3679783)"
       x1="337.29514"
       y1="97.427742"
       x2="390.427"
       y2="68.383614"
       spreadMethod="pad" /><linearGradient
       xlink:href="#linearGradient3884"
       id="linearGradient6832"
       gradientUnits="userSpaceOnUse"
       gradientTransform="matrix(0.70960699,0,0,0.70960699,-211.72226,-2.3096449)"
       x1="337.29514"
       y1="97.427742"
       x2="390.427"
       y2="68.383614"
       spreadMethod="pad" /><linearGradient
       xlink:href="#linearGradient3884"
       id="linearGradient6834"
       gradientUnits="userSpaceOnUse"
       gradientTransform="matrix(0.70960699,0,0,0.70960699,-211.72226,-1.2513115)"
       x1="337.29514"
       y1="97.427742"
       x2="390.427"
       y2="68.383614"
       spreadMethod="pad" /><linearGradient
       xlink:href="#linearGradient3884"
       id="linearGradient6900"
       gradientUnits="userSpaceOnUse"
       gradientTransform="matrix(0.70960699,0,0,0.70960699,-211.72222,-4.1498432)"
       x1="337.29514"
       y1="97.427742"
       x2="390.427"
       y2="68.383614"
       spreadMethod="pad" /><linearGradient
       xlink:href="#linearGradient3884"
       id="linearGradient6902"
       gradientUnits="userSpaceOnUse"
       gradientTransform="matrix(0.70960699,0,0,0.70960699,-211.72226,-3.3679783)"
       x1="337.29514"
       y1="97.427742"
       x2="390.427"
       y2="68.383614"
       spreadMethod="pad" /><linearGradient
       xlink:href="#linearGradient3884"
       id="linearGradient6904"
       gradientUnits="userSpaceOnUse"
       gradientTransform="matrix(0.70960699,0,0,0.70960699,-211.72226,-2.3096449)"
       x1="337.29514"
       y1="97.427742"
       x2="390.427"
       y2="68.383614"
       spreadMethod="pad" /><linearGradient
       xlink:href="#linearGradient3884"
       id="linearGradient6906"
       gradientUnits="userSpaceOnUse"
       gradientTransform="matrix(0.70960699,0,0,0.70960699,-211.72226,-1.2513115)"
       x1="337.29514"
       y1="97.427742"
       x2="390.427"
       y2="68.383614"
       spreadMethod="pad" /><linearGradient
       xlink:href="#linearGradient3884"
       id="linearGradient6918"
       gradientUnits="userSpaceOnUse"
       gradientTransform="matrix(0.70960699,0,0,0.70960699,-211.72222,-4.1498432)"
       x1="337.29514"
       y1="97.427742"
       x2="390.427"
       y2="68.383614"
       spreadMethod="pad" /><linearGradient
       xlink:href="#linearGradient3884"
       id="linearGradient6920"
       gradientUnits="userSpaceOnUse"
       gradientTransform="matrix(0.70960699,0,0,0.70960699,-211.72226,-3.3679783)"
       x1="337.29514"
       y1="97.427742"
       x2="390.427"
       y2="68.383614"
       spreadMethod="pad" /><linearGradient
       xlink:href="#linearGradient3884"
       id="linearGradient6922"
       gradientUnits="userSpaceOnUse"
       gradientTransform="matrix(0.70960699,0,0,0.70960699,-211.72226,-2.3096449)"
       x1="337.29514"
       y1="97.427742"
       x2="390.427"
       y2="68.383614"
       spreadMethod="pad" /><linearGradient
       xlink:href="#linearGradient3884"
       id="linearGradient6924"
       gradientUnits="userSpaceOnUse"
       gradientTransform="matrix(0.70960699,0,0,0.70960699,-211.72226,-1.2513115)"
       x1="337.29514"
       y1="97.427742"
       x2="390.427"
       y2="68.383614"
       spreadMethod="pad" /><linearGradient
       xlink:href="#linearGradient3884"
       id="linearGradient6946"
       gradientUnits="userSpaceOnUse"
       gradientTransform="matrix(0.70960699,0,0,0.70960699,-211.72222,-4.1498432)"
       x1="337.29514"
       y1="97.427742"
       x2="390.427"
       y2="68.383614"
       spreadMethod="pad" /><linearGradient
       xlink:href="#linearGradient3884"
       id="linearGradient6948"
       gradientUnits="userSpaceOnUse"
       gradientTransform="matrix(0.70960699,0,0,0.70960699,-211.72226,-3.3679783)"
       x1="337.29514"
       y1="97.427742"
       x2="390.427"
       y2="68.383614"
       spreadMethod="pad" /><linearGradient
       xlink:href="#linearGradient3884"
       id="linearGradient6950"
       gradientUnits="userSpaceOnUse"
       gradientTransform="matrix(0.70960699,0,0,0.70960699,-211.72226,-2.3096449)"
       x1="337.29514"
       y1="97.427742"
       x2="390.427"
       y2="68.383614"
       spreadMethod="pad" /><linearGradient
       xlink:href="#linearGradient3884"
       id="linearGradient6952"
       gradientUnits="userSpaceOnUse"
       gradientTransform="matrix(0.70960699,0,0,0.70960699,-211.72226,-1.2513115)"
       x1="337.29514"
       y1="97.427742"
       x2="390.427"
       y2="68.383614"
       spreadMethod="pad" /><linearGradient
       xlink:href="#linearGradient3884"
       id="linearGradient6954"
       gradientUnits="userSpaceOnUse"
       gradientTransform="matrix(0.70960699,0,0,0.70960699,-211.72222,-4.1498432)"
       x1="337.29514"
       y1="97.427742"
       x2="390.427"
       y2="68.383614"
       spreadMethod="pad" /><linearGradient
       xlink:href="#linearGradient3884"
       id="linearGradient6956"
       gradientUnits="userSpaceOnUse"
       gradientTransform="matrix(0.70960699,0,0,0.70960699,-211.72226,-3.3679783)"
       x1="337.29514"
       y1="97.427742"
       x2="390.427"
       y2="68.383614"
       spreadMethod="pad" /><linearGradient
       xlink:href="#linearGradient3884"
       id="linearGradient6958"
       gradientUnits="userSpaceOnUse"
       gradientTransform="matrix(0.70960699,0,0,0.70960699,-211.72226,-2.3096449)"
       x1="337.29514"
       y1="97.427742"
       x2="390.427"
       y2="68.383614"
       spreadMethod="pad" /><linearGradient
       xlink:href="#linearGradient3884"
       id="linearGradient6960"
       gradientUnits="userSpaceOnUse"
       gradientTransform="matrix(0.70960699,0,0,0.70960699,-211.72226,-1.2513115)"
       x1="337.29514"
       y1="97.427742"
       x2="390.427"
       y2="68.383614"
       spreadMethod="pad" /><linearGradient
       xlink:href="#linearGradient3884"
       id="linearGradient7122"
       gradientUnits="userSpaceOnUse"
       gradientTransform="matrix(0.70960699,0,0,0.70960699,-211.72222,-4.1498432)"
       x1="337.29514"
       y1="97.427742"
       x2="390.427"
       y2="68.383614"
       spreadMethod="pad" /><linearGradient
       xlink:href="#linearGradient3884"
       id="linearGradient7124"
       gradientUnits="userSpaceOnUse"
       gradientTransform="matrix(0.70960699,0,0,0.70960699,-211.72226,-3.3679783)"
       x1="337.29514"
       y1="97.427742"
       x2="390.427"
       y2="68.383614"
       spreadMethod="pad" /><linearGradient
       xlink:href="#linearGradient3884"
       id="linearGradient7126"
       gradientUnits="userSpaceOnUse"
       gradientTransform="matrix(0.70960699,0,0,0.70960699,-211.72226,-2.3096449)"
       x1="337.29514"
       y1="97.427742"
       x2="390.427"
       y2="68.383614"
       spreadMethod="pad" /><linearGradient
       xlink:href="#linearGradient3884"
       id="linearGradient7128"
       gradientUnits="userSpaceOnUse"
       gradientTransform="matrix(0.70960699,0,0,0.70960699,-211.72226,-1.2513115)"
       x1="337.29514"
       y1="97.427742"
       x2="390.427"
       y2="68.383614"
       spreadMethod="pad" /><linearGradient
       xlink:href="#linearGradient3884"
       id="linearGradient7130"
       gradientUnits="userSpaceOnUse"
       gradientTransform="matrix(0.70960699,0,0,0.70960699,-211.72226,-1.2513115)"
       x1="337.29514"
       y1="97.427742"
       x2="390.427"
       y2="68.383614"
       spreadMethod="pad" /><linearGradient
       xlink:href="#linearGradient3884"
       id="linearGradient7186"
       gradientUnits="userSpaceOnUse"
       gradientTransform="matrix(0.70960699,0,0,0.70960699,-211.72226,-1.2513115)"
       x1="337.29514"
       y1="97.427742"
       x2="390.427"
       y2="68.383614"
       spreadMethod="pad" /></defs><g
     id="layer1"
     transform="translate(228.01009,5.2325535)"><rect
       style="fill:none;fill-opacity:1;stroke:none;stroke-width:1.24965;stroke-linejoin:bevel;stroke-dasharray:none;stroke-opacity:1;paint-order:markers fill stroke"
       id="rect7184"
       width="135.46666"
       height="135.46666"
       x="-228.01009"
       y="-5.2325535" /><rect
       style="fill:#333333;fill-opacity:1;stroke-width:0.338302;stroke-linejoin:bevel;paint-order:markers fill stroke"
       id="rect3167"
       width="148.83708"
       height="125.00156"
       x="-1.1427328e-06"
       y="-3.5134144e-06" /><text
       xml:space="preserve"
       style="font-style:normal;font-weight:normal;font-size:17.4512px;line-height:1.25;font-family:sans-serif;fill:url(#linearGradient4108);fill-opacity:1;stroke:none;stroke-width:0.436281;stroke-opacity:1"
       x="76.016281"
       y="69.00663"
       id="text3229"><tspan
         id="tspan3227"
         style="fill:url(#linearGradient4108);fill-opacity:1;stroke:none;stroke-width:0.436281;stroke-opacity:1"
         x="76.016281"
         y="69.00663">artis</tspan></text><g
       id="g4036"
       transform="translate(2.6458334,-3.9820764)"><path
         id="path3310"
         style="mix-blend-mode:normal;fill:url(#linearGradient3874);fill-opacity:1;stroke-width:0.18775"
         d="m 46.452979,44.375586 -16.986044,9.689848 -1.807641,1.113627 v 6.38359 c 0,0 18.754334,10.652827 15.419731,8.781892 1.755297,1.023544 3.334163,1.871204 3.334163,1.871204 l 9.457304,-5.454964 4.466394,-2.576587 0.110071,5.523694 -10e-4,2.270662 -6.899837,3.998206 c -3.79489,2.198885 -6.984678,3.996171 -7.08794,3.994071 -0.103261,-0.0021 -3.271315,-1.788645 -7.040397,-3.969783 l -6.852811,-3.96565 -0.09405,-2.288749 -0.09405,-2.288749 -2.346626,-1.364775 -2.347144,-1.364774 -0.04961,5.003312 c -0.02753,2.751839 0.01436,5.064765 0.09353,5.140255 0.07916,0.07549 3.692455,2.185282 8.029484,4.688086 4.337022,2.502795 8.510633,4.914023 9.274886,5.358329 h 5.17e-4 c 1.162562,0.675868 1.454174,0.774687 1.78387,0.604097 0.216743,-0.112146 3.21014,-1.840197 3.21014,-1.840197 l 7.134449,-4.133598 c 0,0 5.184071,-2.999279 6.242513,-3.613216 l 1.92443,-1.116211 v -4.833814 -0.228926 -1.698088 -6.753076 -6.143294 l -3.427698,-1.899626 -4.53254,2.497005 3.734139,2.042253 -14.651302,8.791194 -11.117151,-6.492626 -2.767789,-1.828829 13.897859,-8.200533 1.875855,0.91984 4.616255,-2.741435 z" /><path
         id="path3926"
         style="mix-blend-mode:normal;fill:url(#linearGradient3928);fill-opacity:1;stroke-width:0.18775"
         d="m 46.452945,45.157449 -16.986044,9.689848 -1.807641,1.113627 v 6.38359 c 0,0 18.754334,10.652827 15.419731,8.781892 1.755297,1.023544 3.334163,1.871204 3.334163,1.871204 l 9.457304,-5.454964 4.466394,-2.576587 0.110071,5.523694 -10e-4,2.270662 -6.899837,3.998206 c -3.79489,2.198885 -6.984678,3.996171 -7.08794,3.994071 -0.103261,-0.0021 -3.271315,-1.788645 -7.040397,-3.969783 l -6.852811,-3.96565 -0.09405,-2.288749 -0.09405,-2.288749 -2.346626,-1.364775 -2.347144,-1.364774 -0.04961,5.003312 c -0.02753,2.751839 0.01436,5.064765 0.09353,5.140255 0.07916,0.07549 3.692455,2.185282 8.029484,4.688086 4.337022,2.502795 8.510633,4.914023 9.274886,5.358329 h 5.17e-4 c 1.162562,0.675868 1.454174,0.774687 1.78387,0.604097 0.216743,-0.112146 3.21014,-1.840197 3.21014,-1.840197 l 7.134449,-4.133598 c 0,0 5.184071,-2.999279 6.242513,-3.613216 l 1.92443,-1.116211 v -4.833814 -0.228926 -1.698088 -6.753076 -6.143294 l -3.427698,-1.899626 -4.53254,2.497005 3.734139,2.042253 -14.651302,8.791194 -11.117151,-6.492626 -2.767789,-1.828829 13.897859,-8.200533 1.875855,0.91984 4.616255,-2.741435 z" /><path
         id="path3930"
         style="mix-blend-mode:normal;fill:url(#linearGradient3932);fill-opacity:1;stroke-width:0.18775"
         d="m 46.452945,46.215783 -16.986044,9.689848 -1.807641,1.113627 v 6.38359 c 0,0 18.754334,10.652827 15.419731,8.781892 1.755297,1.023544 3.334163,1.871204 3.334163,1.871204 l 9.457304,-5.454964 4.466394,-2.576587 0.110071,5.523694 -10e-4,2.270662 -6.899837,3.998206 c -3.79489,2.198885 -6.984678,3.996171 -7.08794,3.994071 -0.103261,-0.0021 -3.271315,-1.788645 -7.040397,-3.969783 l -6.852811,-3.96565 -0.09405,-2.288749 -0.09405,-2.288749 -2.346626,-1.364775 -2.347144,-1.364774 -0.04961,5.003312 c -0.02753,2.751839 0.01436,5.064765 0.09353,5.140255 0.07916,0.07549 3.692455,2.185282 8.029484,4.688086 4.337022,2.502795 8.510633,4.914023 9.274886,5.358329 h 5.17e-4 c 1.162562,0.675868 1.454174,0.774687 1.78387,0.604097 0.216743,-0.112146 3.21014,-1.840197 3.21014,-1.840197 l 7.134449,-4.133598 c 0,0 5.184071,-2.999279 6.242513,-3.613216 l 1.92443,-1.116211 v -4.833814 -0.228926 -1.698088 -6.753076 -6.143294 l -3.427698,-1.899626 -4.53254,2.497005 3.734139,2.042253 -14.651302,8.791194 -11.117151,-6.492626 -2.767789,-1.828829 13.897859,-8.200533 1.875855,0.91984 4.616255,-2.741435 z" /><path
         id="path3934"
         style="mix-blend-mode:normal;fill:url(#linearGradient3938);fill-opacity:1;stroke-width:0.18775"
         d="m 46.452945,47.274117 -16.986044,9.689848 -1.807641,1.113627 v 6.38359 c 0,0 18.754334,10.652827 15.419731,8.781892 1.755297,1.023544 3.334163,1.871204 3.334163,1.871204 l 9.457304,-5.454964 4.466394,-2.576587 0.110071,5.523694 -10e-4,2.270662 -6.899837,3.998206 c -3.79489,2.198885 -6.984678,3.996171 -7.08794,3.994071 -0.103261,-0.0021 -3.271315,-1.788645 -7.040397,-3.969783 l -6.852811,-3.96565 -0.09405,-2.288749 -0.09405,-2.288749 -2.346626,-1.364775 -2.347144,-1.364774 -0.04961,5.003312 c -0.02753,2.751839 0.01436,5.064765 0.09353,5.140255 0.07916,0.07549 3.692455,2.185282 8.029484,4.688086 4.337022,2.502795 8.510633,4.914023 9.274886,5.358329 h 5.17e-4 c 1.162562,0.675868 1.454174,0.774687 1.78387,0.604097 0.216743,-0.112146 3.21014,-1.840197 3.21014,-1.840197 l 7.134449,-4.133598 c 0,0 5.184071,-2.999279 6.242513,-3.613216 l 1.92443,-1.116211 v -4.833814 -0.228926 -1.698088 -6.753076 -6.143294 l -3.427698,-1.899626 -4.53254,2.497005 3.734139,2.042253 -14.651302,8.791194 -11.117151,-6.492626 -2.767789,-1.828829 13.897859,-8.200533 1.875855,0.91984 4.616255,-2.741435 z" /></g><g
       id="g6824"
       transform="translate(154.79656,0.22849964)"><text
         xml:space="preserve"
         style="font-style:normal;font-weight:normal;font-size:17.4512px;line-height:1.25;font-family:sans-serif;fill:url(#linearGradient6826);fill-opacity:1;stroke:none;stroke-width:0.436281;stroke-opacity:1"
         x="73.370445"
         y="69.00663"
         id="text6812"><tspan
           id="tspan6810"
           style="fill:url(#linearGradient6826);fill-opacity:1;stroke:none;stroke-width:0.436281;stroke-opacity:1"
           x="73.370445"
           y="69.00663">artis</tspan></text><g
         id="g6822"
         transform="translate(0,-3.9820764)"><path
           id="path6814"
           style="mix-blend-mode:normal;fill:url(#linearGradient6828);fill-opacity:1;stroke-width:0.18775"
           d="m 46.452979,44.375586 -16.986044,9.689848 -1.807641,1.113627 v 6.38359 c 0,0 18.754334,10.652827 15.419731,8.781892 1.755297,1.023544 3.334163,1.871204 3.334163,1.871204 l 9.457304,-5.454964 4.466394,-2.576587 0.110071,5.523694 -10e-4,2.270662 -6.899837,3.998206 c -3.79489,2.198885 -6.984678,3.996171 -7.08794,3.994071 -0.103261,-0.0021 -3.271315,-1.788645 -7.040397,-3.969783 l -6.852811,-3.96565 -0.09405,-2.288749 -0.09405,-2.288749 -2.346626,-1.364775 -2.347144,-1.364774 -0.04961,5.003312 c -0.02753,2.751839 0.01436,5.064765 0.09353,5.140255 0.07916,0.07549 3.692455,2.185282 8.029484,4.688086 4.337022,2.502795 8.510633,4.914023 9.274886,5.358329 h 5.17e-4 c 1.162562,0.675868 1.454174,0.774687 1.78387,0.604097 0.216743,-0.112146 3.21014,-1.840197 3.21014,-1.840197 l 7.134449,-4.133598 c 0,0 5.184071,-2.999279 6.242513,-3.613216 l 1.92443,-1.116211 v -4.833814 -0.228926 -1.698088 -6.753076 -6.143294 l -3.427698,-1.899626 -4.53254,2.497005 3.734139,2.042253 -14.651302,8.791194 -11.117151,-6.492626 -2.767789,-1.828829 13.897859,-8.200533 1.875855,0.91984 4.616255,-2.741435 z" /><path
           id="path6816"
           style="mix-blend-mode:normal;fill:url(#linearGradient6830);fill-opacity:1;stroke-width:0.18775"
           d="m 46.452945,45.157449 -16.986044,9.689848 -1.807641,1.113627 v 6.38359 c 0,0 18.754334,10.652827 15.419731,8.781892 1.755297,1.023544 3.334163,1.871204 3.334163,1.871204 l 9.457304,-5.454964 4.466394,-2.576587 0.110071,5.523694 -10e-4,2.270662 -6.899837,3.998206 c -3.79489,2.198885 -6.984678,3.996171 -7.08794,3.994071 -0.103261,-0.0021 -3.271315,-1.788645 -7.040397,-3.969783 l -6.852811,-3.96565 -0.09405,-2.288749 -0.09405,-2.288749 -2.346626,-1.364775 -2.347144,-1.364774 -0.04961,5.003312 c -0.02753,2.751839 0.01436,5.064765 0.09353,5.140255 0.07916,0.07549 3.692455,2.185282 8.029484,4.688086 4.337022,2.502795 8.510633,4.914023 9.274886,5.358329 h 5.17e-4 c 1.162562,0.675868 1.454174,0.774687 1.78387,0.604097 0.216743,-0.112146 3.21014,-1.840197 3.21014,-1.840197 l 7.134449,-4.133598 c 0,0 5.184071,-2.999279 6.242513,-3.613216 l 1.92443,-1.116211 v -4.833814 -0.228926 -1.698088 -6.753076 -6.143294 l -3.427698,-1.899626 -4.53254,2.497005 3.734139,2.042253 -14.651302,8.791194 -11.117151,-6.492626 -2.767789,-1.828829 13.897859,-8.200533 1.875855,0.91984 4.616255,-2.741435 z" /><path
           id="path6818"
           style="mix-blend-mode:normal;fill:url(#linearGradient6832);fill-opacity:1;stroke-width:0.18775"
           d="m 46.452945,46.215783 -16.986044,9.689848 -1.807641,1.113627 v 6.38359 c 0,0 18.754334,10.652827 15.419731,8.781892 1.755297,1.023544 3.334163,1.871204 3.334163,1.871204 l 9.457304,-5.454964 4.466394,-2.576587 0.110071,5.523694 -10e-4,2.270662 -6.899837,3.998206 c -3.79489,2.198885 -6.984678,3.996171 -7.08794,3.994071 -0.103261,-0.0021 -3.271315,-1.788645 -7.040397,-3.969783 l -6.852811,-3.96565 -0.09405,-2.288749 -0.09405,-2.288749 -2.346626,-1.364775 -2.347144,-1.364774 -0.04961,5.003312 c -0.02753,2.751839 0.01436,5.064765 0.09353,5.140255 0.07916,0.07549 3.692455,2.185282 8.029484,4.688086 4.337022,2.502795 8.510633,4.914023 9.274886,5.358329 h 5.17e-4 c 1.162562,0.675868 1.454174,0.774687 1.78387,0.604097 0.216743,-0.112146 3.21014,-1.840197 3.21014,-1.840197 l 7.134449,-4.133598 c 0,0 5.184071,-2.999279 6.242513,-3.613216 l 1.92443,-1.116211 v -4.833814 -0.228926 -1.698088 -6.753076 -6.143294 l -3.427698,-1.899626 -4.53254,2.497005 3.734139,2.042253 -14.651302,8.791194 -11.117151,-6.492626 -2.767789,-1.828829 13.897859,-8.200533 1.875855,0.91984 4.616255,-2.741435 z" /><path
           id="path6820"
           style="mix-blend-mode:normal;fill:url(#linearGradient6834);fill-opacity:1;stroke-width:0.18775"
           d="m 46.452945,47.274117 -16.986044,9.689848 -1.807641,1.113627 v 6.38359 c 0,0 18.754334,10.652827 15.419731,8.781892 1.755297,1.023544 3.334163,1.871204 3.334163,1.871204 l 9.457304,-5.454964 4.466394,-2.576587 0.110071,5.523694 -10e-4,2.270662 -6.899837,3.998206 c -3.79489,2.198885 -6.984678,3.996171 -7.08794,3.994071 -0.103261,-0.0021 -3.271315,-1.788645 -7.040397,-3.969783 l -6.852811,-3.96565 -0.09405,-2.288749 -0.09405,-2.288749 -2.346626,-1.364775 -2.347144,-1.364774 -0.04961,5.003312 c -0.02753,2.751839 0.01436,5.064765 0.09353,5.140255 0.07916,0.07549 3.692455,2.185282 8.029484,4.688086 4.337022,2.502795 8.510633,4.914023 9.274886,5.358329 h 5.17e-4 c 1.162562,0.675868 1.454174,0.774687 1.78387,0.604097 0.216743,-0.112146 3.21014,-1.840197 3.21014,-1.840197 l 7.134449,-4.133598 c 0,0 5.184071,-2.999279 6.242513,-3.613216 l 1.92443,-1.116211 v -4.833814 -0.228926 -1.698088 -6.753076 -6.143294 l -3.427698,-1.899626 -4.53254,2.497005 3.734139,2.042253 -14.651302,8.791194 -11.117151,-6.492626 -2.767789,-1.828829 13.897859,-8.200533 1.875855,0.91984 4.616255,-2.741435 z" /></g></g><g
       id="g6898"
       transform="matrix(0.22086663,0,0,0.22086663,4.0621871,-2.6810494)"><path
         id="path6890"
         style="mix-blend-mode:normal;fill:url(#linearGradient6900);fill-opacity:1;stroke-width:0.18775"
         d="m 46.452979,44.375586 -16.986044,9.689848 -1.807641,1.113627 v 6.38359 c 0,0 18.754334,10.652827 15.419731,8.781892 1.755297,1.023544 3.334163,1.871204 3.334163,1.871204 l 9.457304,-5.454964 4.466394,-2.576587 0.110071,5.523694 -10e-4,2.270662 -6.899837,3.998206 c -3.79489,2.198885 -6.984678,3.996171 -7.08794,3.994071 -0.103261,-0.0021 -3.271315,-1.788645 -7.040397,-3.969783 l -6.852811,-3.96565 -0.09405,-2.288749 -0.09405,-2.288749 -2.346626,-1.364775 -2.347144,-1.364774 -0.04961,5.003312 c -0.02753,2.751839 0.01436,5.064765 0.09353,5.140255 0.07916,0.07549 3.692455,2.185282 8.029484,4.688086 4.337022,2.502795 8.510633,4.914023 9.274886,5.358329 h 5.17e-4 c 1.162562,0.675868 1.454174,0.774687 1.78387,0.604097 0.216743,-0.112146 3.21014,-1.840197 3.21014,-1.840197 l 7.134449,-4.133598 c 0,0 5.184071,-2.999279 6.242513,-3.613216 l 1.92443,-1.116211 v -4.833814 -0.228926 -1.698088 -6.753076 -6.143294 l -3.427698,-1.899626 -4.53254,2.497005 3.734139,2.042253 -14.651302,8.791194 -11.117151,-6.492626 -2.767789,-1.828829 13.897859,-8.200533 1.875855,0.91984 4.616255,-2.741435 z" /><path
         id="path6892"
         style="mix-blend-mode:normal;fill:url(#linearGradient6902);fill-opacity:1;stroke-width:0.18775"
         d="m 46.452945,45.157449 -16.986044,9.689848 -1.807641,1.113627 v 6.38359 c 0,0 18.754334,10.652827 15.419731,8.781892 1.755297,1.023544 3.334163,1.871204 3.334163,1.871204 l 9.457304,-5.454964 4.466394,-2.576587 0.110071,5.523694 -10e-4,2.270662 -6.899837,3.998206 c -3.79489,2.198885 -6.984678,3.996171 -7.08794,3.994071 -0.103261,-0.0021 -3.271315,-1.788645 -7.040397,-3.969783 l -6.852811,-3.96565 -0.09405,-2.288749 -0.09405,-2.288749 -2.346626,-1.364775 -2.347144,-1.364774 -0.04961,5.003312 c -0.02753,2.751839 0.01436,5.064765 0.09353,5.140255 0.07916,0.07549 3.692455,2.185282 8.029484,4.688086 4.337022,2.502795 8.510633,4.914023 9.274886,5.358329 h 5.17e-4 c 1.162562,0.675868 1.454174,0.774687 1.78387,0.604097 0.216743,-0.112146 3.21014,-1.840197 3.21014,-1.840197 l 7.134449,-4.133598 c 0,0 5.184071,-2.999279 6.242513,-3.613216 l 1.92443,-1.116211 v -4.833814 -0.228926 -1.698088 -6.753076 -6.143294 l -3.427698,-1.899626 -4.53254,2.497005 3.734139,2.042253 -14.651302,8.791194 -11.117151,-6.492626 -2.767789,-1.828829 13.897859,-8.200533 1.875855,0.91984 4.616255,-2.741435 z" /><path
         id="path6894"
         style="mix-blend-mode:normal;fill:url(#linearGradient6904);fill-opacity:1;stroke-width:0.18775"
         d="m 46.452945,46.215783 -16.986044,9.689848 -1.807641,1.113627 v 6.38359 c 0,0 18.754334,10.652827 15.419731,8.781892 1.755297,1.023544 3.334163,1.871204 3.334163,1.871204 l 9.457304,-5.454964 4.466394,-2.576587 0.110071,5.523694 -10e-4,2.270662 -6.899837,3.998206 c -3.79489,2.198885 -6.984678,3.996171 -7.08794,3.994071 -0.103261,-0.0021 -3.271315,-1.788645 -7.040397,-3.969783 l -6.852811,-3.96565 -0.09405,-2.288749 -0.09405,-2.288749 -2.346626,-1.364775 -2.347144,-1.364774 -0.04961,5.003312 c -0.02753,2.751839 0.01436,5.064765 0.09353,5.140255 0.07916,0.07549 3.692455,2.185282 8.029484,4.688086 4.337022,2.502795 8.510633,4.914023 9.274886,5.358329 h 5.17e-4 c 1.162562,0.675868 1.454174,0.774687 1.78387,0.604097 0.216743,-0.112146 3.21014,-1.840197 3.21014,-1.840197 l 7.134449,-4.133598 c 0,0 5.184071,-2.999279 6.242513,-3.613216 l 1.92443,-1.116211 v -4.833814 -0.228926 -1.698088 -6.753076 -6.143294 l -3.427698,-1.899626 -4.53254,2.497005 3.734139,2.042253 -14.651302,8.791194 -11.117151,-6.492626 -2.767789,-1.828829 13.897859,-8.200533 1.875855,0.91984 4.616255,-2.741435 z" /><path
         id="path6896"
         style="mix-blend-mode:normal;fill:url(#linearGradient6906);fill-opacity:1;stroke-width:0.18775"
         d="m 46.452945,47.274117 -16.986044,9.689848 -1.807641,1.113627 v 6.38359 c 0,0 18.754334,10.652827 15.419731,8.781892 1.755297,1.023544 3.334163,1.871204 3.334163,1.871204 l 9.457304,-5.454964 4.466394,-2.576587 0.110071,5.523694 -10e-4,2.270662 -6.899837,3.998206 c -3.79489,2.198885 -6.984678,3.996171 -7.08794,3.994071 -0.103261,-0.0021 -3.271315,-1.788645 -7.040397,-3.969783 l -6.852811,-3.96565 -0.09405,-2.288749 -0.09405,-2.288749 -2.346626,-1.364775 -2.347144,-1.364774 -0.04961,5.003312 c -0.02753,2.751839 0.01436,5.064765 0.09353,5.140255 0.07916,0.07549 3.692455,2.185282 8.029484,4.688086 4.337022,2.502795 8.510633,4.914023 9.274886,5.358329 h 5.17e-4 c 1.162562,0.675868 1.454174,0.774687 1.78387,0.604097 0.216743,-0.112146 3.21014,-1.840197 3.21014,-1.840197 l 7.134449,-4.133598 c 0,0 5.184071,-2.999279 6.242513,-3.613216 l 1.92443,-1.116211 v -4.833814 -0.228926 -1.698088 -6.753076 -6.143294 l -3.427698,-1.899626 -4.53254,2.497005 3.734139,2.042253 -14.651302,8.791194 -11.117151,-6.492626 -2.767789,-1.828829 13.897859,-8.200533 1.875855,0.91984 4.616255,-2.741435 z" /></g><g
       id="g7106"><g
         id="g6916"
         transform="matrix(0.53331595,0,0,0.53331595,-4.5692293,-6.8018466)"><path
           id="path6908"
           style="mix-blend-mode:normal;fill:url(#linearGradient6918);fill-opacity:1;stroke-width:0.18775"
           d="m 46.452979,44.375586 -16.986044,9.689848 -1.807641,1.113627 v 6.38359 c 0,0 18.754334,10.652827 15.419731,8.781892 1.755297,1.023544 3.334163,1.871204 3.334163,1.871204 l 9.457304,-5.454964 4.466394,-2.576587 0.110071,5.523694 -10e-4,2.270662 -6.899837,3.998206 c -3.79489,2.198885 -6.984678,3.996171 -7.08794,3.994071 -0.103261,-0.0021 -3.271315,-1.788645 -7.040397,-3.969783 l -6.852811,-3.96565 -0.09405,-2.288749 -0.09405,-2.288749 -2.346626,-1.364775 -2.347144,-1.364774 -0.04961,5.003312 c -0.02753,2.751839 0.01436,5.064765 0.09353,5.140255 0.07916,0.07549 3.692455,2.185282 8.029484,4.688086 4.337022,2.502795 8.510633,4.914023 9.274886,5.358329 h 5.17e-4 c 1.162562,0.675868 1.454174,0.774687 1.78387,0.604097 0.216743,-0.112146 3.21014,-1.840197 3.21014,-1.840197 l 7.134449,-4.133598 c 0,0 5.184071,-2.999279 6.242513,-3.613216 l 1.92443,-1.116211 v -4.833814 -0.228926 -1.698088 -6.753076 -6.143294 l -3.427698,-1.899626 -4.53254,2.497005 3.734139,2.042253 -14.651302,8.791194 -11.117151,-6.492626 -2.767789,-1.828829 13.897859,-8.200533 1.875855,0.91984 4.616255,-2.741435 z" /><path
           id="path6910"
           style="mix-blend-mode:normal;fill:url(#linearGradient6920);fill-opacity:1;stroke-width:0.18775"
           d="m 46.452945,45.157449 -16.986044,9.689848 -1.807641,1.113627 v 6.38359 c 0,0 18.754334,10.652827 15.419731,8.781892 1.755297,1.023544 3.334163,1.871204 3.334163,1.871204 l 9.457304,-5.454964 4.466394,-2.576587 0.110071,5.523694 -10e-4,2.270662 -6.899837,3.998206 c -3.79489,2.198885 -6.984678,3.996171 -7.08794,3.994071 -0.103261,-0.0021 -3.271315,-1.788645 -7.040397,-3.969783 l -6.852811,-3.96565 -0.09405,-2.288749 -0.09405,-2.288749 -2.346626,-1.364775 -2.347144,-1.364774 -0.04961,5.003312 c -0.02753,2.751839 0.01436,5.064765 0.09353,5.140255 0.07916,0.07549 3.692455,2.185282 8.029484,4.688086 4.337022,2.502795 8.510633,4.914023 9.274886,5.358329 h 5.17e-4 c 1.162562,0.675868 1.454174,0.774687 1.78387,0.604097 0.216743,-0.112146 3.21014,-1.840197 3.21014,-1.840197 l 7.134449,-4.133598 c 0,0 5.184071,-2.999279 6.242513,-3.613216 l 1.92443,-1.116211 v -4.833814 -0.228926 -1.698088 -6.753076 -6.143294 l -3.427698,-1.899626 -4.53254,2.497005 3.734139,2.042253 -14.651302,8.791194 -11.117151,-6.492626 -2.767789,-1.828829 13.897859,-8.200533 1.875855,0.91984 4.616255,-2.741435 z" /><path
           id="path6912"
           style="mix-blend-mode:normal;fill:url(#linearGradient6922);fill-opacity:1;stroke-width:0.18775"
           d="m 46.452945,46.215783 -16.986044,9.689848 -1.807641,1.113627 v 6.38359 c 0,0 18.754334,10.652827 15.419731,8.781892 1.755297,1.023544 3.334163,1.871204 3.334163,1.871204 l 9.457304,-5.454964 4.466394,-2.576587 0.110071,5.523694 -10e-4,2.270662 -6.899837,3.998206 c -3.79489,2.198885 -6.984678,3.996171 -7.08794,3.994071 -0.103261,-0.0021 -3.271315,-1.788645 -7.040397,-3.969783 l -6.852811,-3.96565 -0.09405,-2.288749 -0.09405,-2.288749 -2.346626,-1.364775 -2.347144,-1.364774 -0.04961,5.003312 c -0.02753,2.751839 0.01436,5.064765 0.09353,5.140255 0.07916,0.07549 3.692455,2.185282 8.029484,4.688086 4.337022,2.502795 8.510633,4.914023 9.274886,5.358329 h 5.17e-4 c 1.162562,0.675868 1.454174,0.774687 1.78387,0.604097 0.216743,-0.112146 3.21014,-1.840197 3.21014,-1.840197 l 7.134449,-4.133598 c 0,0 5.184071,-2.999279 6.242513,-3.613216 l 1.92443,-1.116211 v -4.833814 -0.228926 -1.698088 -6.753076 -6.143294 l -3.427698,-1.899626 -4.53254,2.497005 3.734139,2.042253 -14.651302,8.791194 -11.117151,-6.492626 -2.767789,-1.828829 13.897859,-8.200533 1.875855,0.91984 4.616255,-2.741435 z" /><path
           id="path6914"
           style="mix-blend-mode:normal;fill:url(#linearGradient7186);fill-opacity:1;stroke-width:0.18775"
           d="m 46.452945,47.274117 -16.986044,9.689848 -1.807641,1.113627 v 6.38359 c 0,0 18.754334,10.652827 15.419731,8.781892 1.755297,1.023544 3.334163,1.871204 3.334163,1.871204 l 9.457304,-5.454964 4.466394,-2.576587 0.110071,5.523694 -10e-4,2.270662 -6.899837,3.998206 c -3.79489,2.198885 -6.984678,3.996171 -7.08794,3.994071 -0.103261,-0.0021 -3.271315,-1.788645 -7.040397,-3.969783 l -6.852811,-3.96565 -0.09405,-2.288749 -0.09405,-2.288749 -2.346626,-1.364775 -2.347144,-1.364774 -0.04961,5.003312 c -0.02753,2.751839 0.01436,5.064765 0.09353,5.140255 0.07916,0.07549 3.692455,2.185282 8.029484,4.688086 4.337022,2.502795 8.510633,4.914023 9.274886,5.358329 h 5.17e-4 c 1.162562,0.675868 1.454174,0.774687 1.78387,0.604097 0.216743,-0.112146 3.21014,-1.840197 3.21014,-1.840197 l 7.134449,-4.133598 c 0,0 5.184071,-2.999279 6.242513,-3.613216 l 1.92443,-1.116211 v -4.833814 -0.228926 -1.698088 -6.753076 -6.143294 l -3.427698,-1.899626 -4.53254,2.497005 3.734139,2.042253 -14.651302,8.791194 -11.117151,-6.492626 -2.767789,-1.828829 13.897859,-8.200533 1.875855,0.91984 4.616255,-2.741435 z" /><path
           id="path7037"
           style="mix-blend-mode:normal;fill:url(#linearGradient6924);fill-opacity:1;stroke-width:0.18775"
           d="m 46.452945,47.274117 -16.986044,9.689848 -1.807641,1.113627 v 6.38359 c 0,0 18.754334,10.652827 15.419731,8.781892 1.755297,1.023544 3.334163,1.871204 3.334163,1.871204 l 9.457304,-5.454964 4.466394,-2.576587 0.110071,5.523694 -10e-4,2.270662 -6.899837,3.998206 c -3.79489,2.198885 -6.984678,3.996171 -7.08794,3.994071 -0.103261,-0.0021 -3.271315,-1.788645 -7.040397,-3.969783 l -6.852811,-3.96565 -0.09405,-2.288749 -0.09405,-2.288749 -2.346626,-1.364775 -2.347144,-1.364774 -0.04961,5.003312 c -0.02753,2.751839 0.01436,5.064765 0.09353,5.140255 0.07916,0.07549 3.692455,2.185282 8.029484,4.688086 4.337022,2.502795 8.510633,4.914023 9.274886,5.358329 h 5.17e-4 c 1.162562,0.675868 1.454174,0.774687 1.78387,0.604097 0.216743,-0.112146 3.21014,-1.840197 3.21014,-1.840197 l 7.134449,-4.133598 c 0,0 5.184071,-2.999279 6.242513,-3.613216 l 1.92443,-1.116211 v -4.833814 -0.228926 -1.698088 -6.753076 -6.143294 l -3.427698,-1.899626 -4.53254,2.497005 3.734139,2.042253 -14.651302,8.791194 -11.117151,-6.492626 -2.767789,-1.828829 13.897859,-8.200533 1.875855,0.91984 4.616255,-2.741435 z" /></g></g><g
       id="g6934"
       transform="matrix(0.22086663,0,0,0.22086663,156.21291,-2.4525497)"><path
         id="path6926"
         style="mix-blend-mode:normal;fill:url(#linearGradient6954);fill-opacity:1;stroke-width:0.18775"
         d="m 46.452979,44.375586 -16.986044,9.689848 -1.807641,1.113627 v 6.38359 c 0,0 18.754334,10.652827 15.419731,8.781892 1.755297,1.023544 3.334163,1.871204 3.334163,1.871204 l 9.457304,-5.454964 4.466394,-2.576587 0.110071,5.523694 -10e-4,2.270662 -6.899837,3.998206 c -3.79489,2.198885 -6.984678,3.996171 -7.08794,3.994071 -0.103261,-0.0021 -3.271315,-1.788645 -7.040397,-3.969783 l -6.852811,-3.96565 -0.09405,-2.288749 -0.09405,-2.288749 -2.346626,-1.364775 -2.347144,-1.364774 -0.04961,5.003312 c -0.02753,2.751839 0.01436,5.064765 0.09353,5.140255 0.07916,0.07549 3.692455,2.185282 8.029484,4.688086 4.337022,2.502795 8.510633,4.914023 9.274886,5.358329 h 5.17e-4 c 1.162562,0.675868 1.454174,0.774687 1.78387,0.604097 0.216743,-0.112146 3.21014,-1.840197 3.21014,-1.840197 l 7.134449,-4.133598 c 0,0 5.184071,-2.999279 6.242513,-3.613216 l 1.92443,-1.116211 v -4.833814 -0.228926 -1.698088 -6.753076 -6.143294 l -3.427698,-1.899626 -4.53254,2.497005 3.734139,2.042253 -14.651302,8.791194 -11.117151,-6.492626 -2.767789,-1.828829 13.897859,-8.200533 1.875855,0.91984 4.616255,-2.741435 z" /><path
         id="path6928"
         style="mix-blend-mode:normal;fill:url(#linearGradient6956);fill-opacity:1;stroke-width:0.18775"
         d="m 46.452945,45.157449 -16.986044,9.689848 -1.807641,1.113627 v 6.38359 c 0,0 18.754334,10.652827 15.419731,8.781892 1.755297,1.023544 3.334163,1.871204 3.334163,1.871204 l 9.457304,-5.454964 4.466394,-2.576587 0.110071,5.523694 -10e-4,2.270662 -6.899837,3.998206 c -3.79489,2.198885 -6.984678,3.996171 -7.08794,3.994071 -0.103261,-0.0021 -3.271315,-1.788645 -7.040397,-3.969783 l -6.852811,-3.96565 -0.09405,-2.288749 -0.09405,-2.288749 -2.346626,-1.364775 -2.347144,-1.364774 -0.04961,5.003312 c -0.02753,2.751839 0.01436,5.064765 0.09353,5.140255 0.07916,0.07549 3.692455,2.185282 8.029484,4.688086 4.337022,2.502795 8.510633,4.914023 9.274886,5.358329 h 5.17e-4 c 1.162562,0.675868 1.454174,0.774687 1.78387,0.604097 0.216743,-0.112146 3.21014,-1.840197 3.21014,-1.840197 l 7.134449,-4.133598 c 0,0 5.184071,-2.999279 6.242513,-3.613216 l 1.92443,-1.116211 v -4.833814 -0.228926 -1.698088 -6.753076 -6.143294 l -3.427698,-1.899626 -4.53254,2.497005 3.734139,2.042253 -14.651302,8.791194 -11.117151,-6.492626 -2.767789,-1.828829 13.897859,-8.200533 1.875855,0.91984 4.616255,-2.741435 z" /><path
         id="path6930"
         style="mix-blend-mode:normal;fill:url(#linearGradient6958);fill-opacity:1;stroke-width:0.18775"
         d="m 46.452945,46.215783 -16.986044,9.689848 -1.807641,1.113627 v 6.38359 c 0,0 18.754334,10.652827 15.419731,8.781892 1.755297,1.023544 3.334163,1.871204 3.334163,1.871204 l 9.457304,-5.454964 4.466394,-2.576587 0.110071,5.523694 -10e-4,2.270662 -6.899837,3.998206 c -3.79489,2.198885 -6.984678,3.996171 -7.08794,3.994071 -0.103261,-0.0021 -3.271315,-1.788645 -7.040397,-3.969783 l -6.852811,-3.96565 -0.09405,-2.288749 -0.09405,-2.288749 -2.346626,-1.364775 -2.347144,-1.364774 -0.04961,5.003312 c -0.02753,2.751839 0.01436,5.064765 0.09353,5.140255 0.07916,0.07549 3.692455,2.185282 8.029484,4.688086 4.337022,2.502795 8.510633,4.914023 9.274886,5.358329 h 5.17e-4 c 1.162562,0.675868 1.454174,0.774687 1.78387,0.604097 0.216743,-0.112146 3.21014,-1.840197 3.21014,-1.840197 l 7.134449,-4.133598 c 0,0 5.184071,-2.999279 6.242513,-3.613216 l 1.92443,-1.116211 v -4.833814 -0.228926 -1.698088 -6.753076 -6.143294 l -3.427698,-1.899626 -4.53254,2.497005 3.734139,2.042253 -14.651302,8.791194 -11.117151,-6.492626 -2.767789,-1.828829 13.897859,-8.200533 1.875855,0.91984 4.616255,-2.741435 z" /><path
         id="path6932"
         style="mix-blend-mode:normal;fill:url(#linearGradient6960);fill-opacity:1;stroke-width:0.18775"
         d="m 46.452945,47.274117 -16.986044,9.689848 -1.807641,1.113627 v 6.38359 c 0,0 18.754334,10.652827 15.419731,8.781892 1.755297,1.023544 3.334163,1.871204 3.334163,1.871204 l 9.457304,-5.454964 4.466394,-2.576587 0.110071,5.523694 -10e-4,2.270662 -6.899837,3.998206 c -3.79489,2.198885 -6.984678,3.996171 -7.08794,3.994071 -0.103261,-0.0021 -3.271315,-1.788645 -7.040397,-3.969783 l -6.852811,-3.96565 -0.09405,-2.288749 -0.09405,-2.288749 -2.346626,-1.364775 -2.347144,-1.364774 -0.04961,5.003312 c -0.02753,2.751839 0.01436,5.064765 0.09353,5.140255 0.07916,0.07549 3.692455,2.185282 8.029484,4.688086 4.337022,2.502795 8.510633,4.914023 9.274886,5.358329 h 5.17e-4 c 1.162562,0.675868 1.454174,0.774687 1.78387,0.604097 0.216743,-0.112146 3.21014,-1.840197 3.21014,-1.840197 l 7.134449,-4.133598 c 0,0 5.184071,-2.999279 6.242513,-3.613216 l 1.92443,-1.116211 v -4.833814 -0.228926 -1.698088 -6.753076 -6.143294 l -3.427698,-1.899626 -4.53254,2.497005 3.734139,2.042253 -14.651302,8.791194 -11.117151,-6.492626 -2.767789,-1.828829 13.897859,-8.200533 1.875855,0.91984 4.616255,-2.741435 z" /></g><g
       id="g6944"
       transform="matrix(0.53331595,0,0,0.53331595,147.5815,-6.5733469)"><path
         id="path6936"
         style="mix-blend-mode:normal;fill:url(#linearGradient6946);fill-opacity:1;stroke-width:0.18775"
         d="m 46.452979,44.375586 -16.986044,9.689848 -1.807641,1.113627 v 6.38359 c 0,0 18.754334,10.652827 15.419731,8.781892 1.755297,1.023544 3.334163,1.871204 3.334163,1.871204 l 9.457304,-5.454964 4.466394,-2.576587 0.110071,5.523694 -10e-4,2.270662 -6.899837,3.998206 c -3.79489,2.198885 -6.984678,3.996171 -7.08794,3.994071 -0.103261,-0.0021 -3.271315,-1.788645 -7.040397,-3.969783 l -6.852811,-3.96565 -0.09405,-2.288749 -0.09405,-2.288749 -2.346626,-1.364775 -2.347144,-1.364774 -0.04961,5.003312 c -0.02753,2.751839 0.01436,5.064765 0.09353,5.140255 0.07916,0.07549 3.692455,2.185282 8.029484,4.688086 4.337022,2.502795 8.510633,4.914023 9.274886,5.358329 h 5.17e-4 c 1.162562,0.675868 1.454174,0.774687 1.78387,0.604097 0.216743,-0.112146 3.21014,-1.840197 3.21014,-1.840197 l 7.134449,-4.133598 c 0,0 5.184071,-2.999279 6.242513,-3.613216 l 1.92443,-1.116211 v -4.833814 -0.228926 -1.698088 -6.753076 -6.143294 l -3.427698,-1.899626 -4.53254,2.497005 3.734139,2.042253 -14.651302,8.791194 -11.117151,-6.492626 -2.767789,-1.828829 13.897859,-8.200533 1.875855,0.91984 4.616255,-2.741435 z" /><path
         id="path6938"
         style="mix-blend-mode:normal;fill:url(#linearGradient6948);fill-opacity:1;stroke-width:0.18775"
         d="m 46.452945,45.157449 -16.986044,9.689848 -1.807641,1.113627 v 6.38359 c 0,0 18.754334,10.652827 15.419731,8.781892 1.755297,1.023544 3.334163,1.871204 3.334163,1.871204 l 9.457304,-5.454964 4.466394,-2.576587 0.110071,5.523694 -10e-4,2.270662 -6.899837,3.998206 c -3.79489,2.198885 -6.984678,3.996171 -7.08794,3.994071 -0.103261,-0.0021 -3.271315,-1.788645 -7.040397,-3.969783 l -6.852811,-3.96565 -0.09405,-2.288749 -0.09405,-2.288749 -2.346626,-1.364775 -2.347144,-1.364774 -0.04961,5.003312 c -0.02753,2.751839 0.01436,5.064765 0.09353,5.140255 0.07916,0.07549 3.692455,2.185282 8.029484,4.688086 4.337022,2.502795 8.510633,4.914023 9.274886,5.358329 h 5.17e-4 c 1.162562,0.675868 1.454174,0.774687 1.78387,0.604097 0.216743,-0.112146 3.21014,-1.840197 3.21014,-1.840197 l 7.134449,-4.133598 c 0,0 5.184071,-2.999279 6.242513,-3.613216 l 1.92443,-1.116211 v -4.833814 -0.228926 -1.698088 -6.753076 -6.143294 l -3.427698,-1.899626 -4.53254,2.497005 3.734139,2.042253 -14.651302,8.791194 -11.117151,-6.492626 -2.767789,-1.828829 13.897859,-8.200533 1.875855,0.91984 4.616255,-2.741435 z" /><path
         id="path6940"
         style="mix-blend-mode:normal;fill:url(#linearGradient6950);fill-opacity:1;stroke-width:0.18775"
         d="m 46.452945,46.215783 -16.986044,9.689848 -1.807641,1.113627 v 6.38359 c 0,0 18.754334,10.652827 15.419731,8.781892 1.755297,1.023544 3.334163,1.871204 3.334163,1.871204 l 9.457304,-5.454964 4.466394,-2.576587 0.110071,5.523694 -10e-4,2.270662 -6.899837,3.998206 c -3.79489,2.198885 -6.984678,3.996171 -7.08794,3.994071 -0.103261,-0.0021 -3.271315,-1.788645 -7.040397,-3.969783 l -6.852811,-3.96565 -0.09405,-2.288749 -0.09405,-2.288749 -2.346626,-1.364775 -2.347144,-1.364774 -0.04961,5.003312 c -0.02753,2.751839 0.01436,5.064765 0.09353,5.140255 0.07916,0.07549 3.692455,2.185282 8.029484,4.688086 4.337022,2.502795 8.510633,4.914023 9.274886,5.358329 h 5.17e-4 c 1.162562,0.675868 1.454174,0.774687 1.78387,0.604097 0.216743,-0.112146 3.21014,-1.840197 3.21014,-1.840197 l 7.134449,-4.133598 c 0,0 5.184071,-2.999279 6.242513,-3.613216 l 1.92443,-1.116211 v -4.833814 -0.228926 -1.698088 -6.753076 -6.143294 l -3.427698,-1.899626 -4.53254,2.497005 3.734139,2.042253 -14.651302,8.791194 -11.117151,-6.492626 -2.767789,-1.828829 13.897859,-8.200533 1.875855,0.91984 4.616255,-2.741435 z" /><path
         id="path6942"
         style="mix-blend-mode:normal;fill:url(#linearGradient6952);fill-opacity:1;stroke-width:0.18775"
         d="m 46.452945,47.274117 -16.986044,9.689848 -1.807641,1.113627 v 6.38359 c 0,0 18.754334,10.652827 15.419731,8.781892 1.755297,1.023544 3.334163,1.871204 3.334163,1.871204 l 9.457304,-5.454964 4.466394,-2.576587 0.110071,5.523694 -10e-4,2.270662 -6.899837,3.998206 c -3.79489,2.198885 -6.984678,3.996171 -7.08794,3.994071 -0.103261,-0.0021 -3.271315,-1.788645 -7.040397,-3.969783 l -6.852811,-3.96565 -0.09405,-2.288749 -0.09405,-2.288749 -2.346626,-1.364775 -2.347144,-1.364774 -0.04961,5.003312 c -0.02753,2.751839 0.01436,5.064765 0.09353,5.140255 0.07916,0.07549 3.692455,2.185282 8.029484,4.688086 4.337022,2.502795 8.510633,4.914023 9.274886,5.358329 h 5.17e-4 c 1.162562,0.675868 1.454174,0.774687 1.78387,0.604097 0.216743,-0.112146 3.21014,-1.840197 3.21014,-1.840197 l 7.134449,-4.133598 c 0,0 5.184071,-2.999279 6.242513,-3.613216 l 1.92443,-1.116211 v -4.833814 -0.228926 -1.698088 -6.753076 -6.143294 l -3.427698,-1.899626 -4.53254,2.497005 3.734139,2.042253 -14.651302,8.791194 -11.117151,-6.492626 -2.767789,-1.828829 13.897859,-8.200533 1.875855,0.91984 4.616255,-2.741435 z" /></g><g
       id="g7120"
       transform="matrix(5.0318282,0,0,5.0318282,-262.00646,-81.555108)"><g
         id="g7118"
         transform="matrix(0.53331595,0,0,0.53331595,-4.5692293,-6.8018466)"><path
           id="path7108"
           style="mix-blend-mode:normal;fill:url(#linearGradient7122);fill-opacity:1;stroke-width:0.18775"
           d="m 46.452979,44.375586 -16.986044,9.689848 -1.807641,1.113627 v 6.38359 c 0,0 18.754334,10.652827 15.419731,8.781892 1.755297,1.023544 3.334163,1.871204 3.334163,1.871204 l 9.457304,-5.454964 4.466394,-2.576587 0.110071,5.523694 -10e-4,2.270662 -6.899837,3.998206 c -3.79489,2.198885 -6.984678,3.996171 -7.08794,3.994071 -0.103261,-0.0021 -3.271315,-1.788645 -7.040397,-3.969783 l -6.852811,-3.96565 -0.09405,-2.288749 -0.09405,-2.288749 -2.346626,-1.364775 -2.347144,-1.364774 -0.04961,5.003312 c -0.02753,2.751839 0.01436,5.064765 0.09353,5.140255 0.07916,0.07549 3.692455,2.185282 8.029484,4.688086 4.337022,2.502795 8.510633,4.914023 9.274886,5.358329 h 5.17e-4 c 1.162562,0.675868 1.454174,0.774687 1.78387,0.604097 0.216743,-0.112146 3.21014,-1.840197 3.21014,-1.840197 l 7.134449,-4.133598 c 0,0 5.184071,-2.999279 6.242513,-3.613216 l 1.92443,-1.116211 v -4.833814 -0.228926 -1.698088 -6.753076 -6.143294 l -3.427698,-1.899626 -4.53254,2.497005 3.734139,2.042253 -14.651302,8.791194 -11.117151,-6.492626 -2.767789,-1.828829 13.897859,-8.200533 1.875855,0.91984 4.616255,-2.741435 z" /><path
           id="path7110"
           style="mix-blend-mode:normal;fill:url(#linearGradient7124);fill-opacity:1;stroke-width:0.18775"
           d="m 46.452945,45.157449 -16.986044,9.689848 -1.807641,1.113627 v 6.38359 c 0,0 18.754334,10.652827 15.419731,8.781892 1.755297,1.023544 3.334163,1.871204 3.334163,1.871204 l 9.457304,-5.454964 4.466394,-2.576587 0.110071,5.523694 -10e-4,2.270662 -6.899837,3.998206 c -3.79489,2.198885 -6.984678,3.996171 -7.08794,3.994071 -0.103261,-0.0021 -3.271315,-1.788645 -7.040397,-3.969783 l -6.852811,-3.96565 -0.09405,-2.288749 -0.09405,-2.288749 -2.346626,-1.364775 -2.347144,-1.364774 -0.04961,5.003312 c -0.02753,2.751839 0.01436,5.064765 0.09353,5.140255 0.07916,0.07549 3.692455,2.185282 8.029484,4.688086 4.337022,2.502795 8.510633,4.914023 9.274886,5.358329 h 5.17e-4 c 1.162562,0.675868 1.454174,0.774687 1.78387,0.604097 0.216743,-0.112146 3.21014,-1.840197 3.21014,-1.840197 l 7.134449,-4.133598 c 0,0 5.184071,-2.999279 6.242513,-3.613216 l 1.92443,-1.116211 v -4.833814 -0.228926 -1.698088 -6.753076 -6.143294 l -3.427698,-1.899626 -4.53254,2.497005 3.734139,2.042253 -14.651302,8.791194 -11.117151,-6.492626 -2.767789,-1.828829 13.897859,-8.200533 1.875855,0.91984 4.616255,-2.741435 z" /><path
           id="path7112"
           style="mix-blend-mode:normal;fill:url(#linearGradient7126);fill-opacity:1;stroke-width:0.18775"
           d="m 46.452945,46.215783 -16.986044,9.689848 -1.807641,1.113627 v 6.38359 c 0,0 18.754334,10.652827 15.419731,8.781892 1.755297,1.023544 3.334163,1.871204 3.334163,1.871204 l 9.457304,-5.454964 4.466394,-2.576587 0.110071,5.523694 -10e-4,2.270662 -6.899837,3.998206 c -3.79489,2.198885 -6.984678,3.996171 -7.08794,3.994071 -0.103261,-0.0021 -3.271315,-1.788645 -7.040397,-3.969783 l -6.852811,-3.96565 -0.09405,-2.288749 -0.09405,-2.288749 -2.346626,-1.364775 -2.347144,-1.364774 -0.04961,5.003312 c -0.02753,2.751839 0.01436,5.064765 0.09353,5.140255 0.07916,0.07549 3.692455,2.185282 8.029484,4.688086 4.337022,2.502795 8.510633,4.914023 9.274886,5.358329 h 5.17e-4 c 1.162562,0.675868 1.454174,0.774687 1.78387,0.604097 0.216743,-0.112146 3.21014,-1.840197 3.21014,-1.840197 l 7.134449,-4.133598 c 0,0 5.184071,-2.999279 6.242513,-3.613216 l 1.92443,-1.116211 v -4.833814 -0.228926 -1.698088 -6.753076 -6.143294 l -3.427698,-1.899626 -4.53254,2.497005 3.734139,2.042253 -14.651302,8.791194 -11.117151,-6.492626 -2.767789,-1.828829 13.897859,-8.200533 1.875855,0.91984 4.616255,-2.741435 z" /><path
           id="path7114"
           style="mix-blend-mode:normal;fill:url(#linearGradient7128);fill-opacity:1;stroke-width:0.18775"
           d="m 46.452945,47.274117 -16.986044,9.689848 -1.807641,1.113627 v 6.38359 c 0,0 18.754334,10.652827 15.419731,8.781892 1.755297,1.023544 3.334163,1.871204 3.334163,1.871204 l 9.457304,-5.454964 4.466394,-2.576587 0.110071,5.523694 -10e-4,2.270662 -6.899837,3.998206 c -3.79489,2.198885 -6.984678,3.996171 -7.08794,3.994071 -0.103261,-0.0021 -3.271315,-1.788645 -7.040397,-3.969783 l -6.852811,-3.96565 -0.09405,-2.288749 -0.09405,-2.288749 -2.346626,-1.364775 -2.347144,-1.364774 -0.04961,5.003312 c -0.02753,2.751839 0.01436,5.064765 0.09353,5.140255 0.07916,0.07549 3.692455,2.185282 8.029484,4.688086 4.337022,2.502795 8.510633,4.914023 9.274886,5.358329 h 5.17e-4 c 1.162562,0.675868 1.454174,0.774687 1.78387,0.604097 0.216743,-0.112146 3.21014,-1.840197 3.21014,-1.840197 l 7.134449,-4.133598 c 0,0 5.184071,-2.999279 6.242513,-3.613216 l 1.92443,-1.116211 v -4.833814 -0.228926 -1.698088 -6.753076 -6.143294 l -3.427698,-1.899626 -4.53254,2.497005 3.734139,2.042253 -14.651302,8.791194 -11.117151,-6.492626 -2.767789,-1.828829 13.897859,-8.200533 1.875855,0.91984 4.616255,-2.741435 z" /><path
           id="path7116"
           style="mix-blend-mode:normal;fill:url(#linearGradient7130);fill-opacity:1;stroke-width:0.18775"
           d="m 46.452945,47.274117 -16.986044,9.689848 -1.807641,1.113627 v 6.38359 c 0,0 18.754334,10.652827 15.419731,8.781892 1.755297,1.023544 3.334163,1.871204 3.334163,1.871204 l 9.457304,-5.454964 4.466394,-2.576587 0.110071,5.523694 -10e-4,2.270662 -6.899837,3.998206 c -3.79489,2.198885 -6.984678,3.996171 -7.08794,3.994071 -0.103261,-0.0021 -3.271315,-1.788645 -7.040397,-3.969783 l -6.852811,-3.96565 -0.09405,-2.288749 -0.09405,-2.288749 -2.346626,-1.364775 -2.347144,-1.364774 -0.04961,5.003312 c -0.02753,2.751839 0.01436,5.064765 0.09353,5.140255 0.07916,0.07549 3.692455,2.185282 8.029484,4.688086 4.337022,2.502795 8.510633,4.914023 9.274886,5.358329 h 5.17e-4 c 1.162562,0.675868 1.454174,0.774687 1.78387,0.604097 0.216743,-0.112146 3.21014,-1.840197 3.21014,-1.840197 l 7.134449,-4.133598 c 0,0 5.184071,-2.999279 6.242513,-3.613216 l 1.92443,-1.116211 v -4.833814 -0.228926 -1.698088 -6.753076 -6.143294 l -3.427698,-1.899626 -4.53254,2.497005 3.734139,2.042253 -14.651302,8.791194 -11.117151,-6.492626 -2.767789,-1.828829 13.897859,-8.200533 1.875855,0.91984 4.616255,-2.741435 z" /></g></g></g></svg>
